<?xml version="1.0" standalone="no"?><!DOCTYPE svg PUBLIC "-//W3C//DTD SVG 1.1//EN" "http://www.w3.org/Graphics/SVG/1.1/DTD/svg11.dtd"><svg t="1603721135683" class="icon" viewBox="0 0 1024 1024" version="1.1" xmlns="http://www.w3.org/2000/svg" p-id="3988" xmlns:xlink="http://www.w3.org/1999/xlink" width="200" height="200"><defs><style type="text/css"></style></defs><path d="M415.1 698.1c-156.4-0.9-283-127.6-283.7-284.1-0.4-74.9 29.1-146.8 82-199.7 52.9-53 124.8-82.6 199.6-82.3 156.4 0.9 283 127.6 283.7 284.1 0.4 74.9-29.1 146.8-82 199.7-52.8 52.9-124.7 82.6-199.6 82.3z m531.7 173.8L699.7 624.7c44.3-60.4 68-133.5 67.7-208.4-0.8-195.5-159-353.9-354.6-355.1-93.5-0.4-183.4 36.6-249.5 102.8-66.1 66.2-103 156.1-102.5 249.7 0.8 195.6 159 354 354.6 355.1 75.2 0.3 148.5-23.7 209-68.4l0.3-0.2 246.9 247c13.3 14 33.2 19.7 52 14.8 18.7-4.9 33.3-19.5 38.2-38.2 4.7-18.7-1-38.6-15-51.9z" p-id="3989" fill="white"></path></svg>